<?xml version="1.0" encoding="UTF-8"?>
<svg width="400" height="300" viewBox="0 0 400 300" fill="none" xmlns="http://www.w3.org/2000/svg">
    <!-- Background Elements -->
    <circle cx="200" cy="150" r="120" fill="#F5F7FF" opacity="0.5"/>
    <circle cx="200" cy="150" r="80" fill="#E8ECFF" opacity="0.3"/>
    
    <!-- Document Stack -->
    <g transform="translate(130, 80)">
        <!-- Bottom Document -->
        <rect x="0" y="20" width="140" height="160" rx="8" fill="#E8ECFF"/>
        <rect x="20" y="45" width="100" height="10" rx="2" fill="#D1D9FF"/>
        <rect x="20" y="65" width="80" height="10" rx="2" fill="#D1D9FF"/>
        <rect x="20" y="85" width="60" height="10" rx="2" fill="#D1D9FF"/>
        
        <!-- Middle Document -->
        <rect x="10" y="10" width="140" height="160" rx="8" fill="#F0F3FF"/>
        <rect x="30" y="35" width="100" height="10" rx="2" fill="#D1D9FF"/>
        <rect x="30" y="55" width="80" height="10" rx="2" fill="#D1D9FF"/>
        <rect x="30" y="75" width="60" height="10" rx="2" fill="#D1D9FF"/>
        
        <!-- Top Document -->
        <rect x="20" y="0" width="140" height="160" rx="8" fill="#FFFFFF" stroke="#6C8AFF" stroke-width="2"/>
        <rect x="40" y="25" width="100" height="10" rx="2" fill="#E8ECFF"/>
        <rect x="40" y="45" width="80" height="10" rx="2" fill="#E8ECFF"/>
        <rect x="40" y="65" width="60" height="10" rx="2" fill="#E8ECFF"/>
        
        <!-- Search Icon -->
        <circle cx="90" cy="110" r="25" stroke="#6C8AFF" stroke-width="2" fill="white"/>
        <circle cx="90" cy="110" r="15" fill="#F0F3FF"/>
        <line x1="108" y1="128" x2="100" y2="120" stroke="#6C8AFF" stroke-width="2" stroke-linecap="round"/>
    </g>
    
    <!-- Question Mark -->
    <g transform="translate(185, 140)">
        <circle cx="15" cy="15" r="15" fill="#6C8AFF" opacity="0.2"/>
        <path d="M15 5C11.134 5 8 8.134 8 12h4c0-1.654 1.346-3 3-3s3 1.346 3 3c0 3-4.5 2.5-4.5 7h4c0-3 4.5-3.5 4.5-7 0-3.866-3.134-7-7-7z" fill="#6C8AFF"/>
        <circle cx="15" cy="23" r="2" fill="#6C8AFF"/>
    </g>
</svg>
